<?xml version="1.0" encoding="utf-8"?>
<!-- Generator: Adobe Illustrator 18.0.0, SVG Export Plug-In . SVG Version: 6.00 Build 0)  -->
<!DOCTYPE svg PUBLIC "-//W3C//DTD SVG 1.1//EN" "http://www.w3.org/Graphics/SVG/1.1/DTD/svg11.dtd">
<svg version="1.1" id="Capa_1" xmlns="http://www.w3.org/2000/svg" xmlns:xlink="http://www.w3.org/1999/xlink" x="0px" y="0px"
	 viewBox="0 0 612 792" enable-background="new 0 0 612 792" xml:space="preserve">
<g>
	<g id="Layer_5_85_">
		<path fill="#FFFFFF" stroke="#FFFFFF" stroke-miterlimit="10" d="M528.5,90c0,0-198.4,0-264.6,0c-10.1,0-10.6,7.4-10.6,7.4v253.2
			c0,4.5-2.8,5.8-6.2,2.8l-43.6-38.6c-3.4-3-8.9-3-12.3,0.1l-42.3,38.5c-3.4,3.1-6.1,1.8-6.1-2.7V97.4c0,0-0.2-7.4-9.9-7.4
			c-12.4,0-49.5,0-49.5,0c-18.4,0-33.4,15-33.4,33.4v545.2c0,18.4,15,33.4,33.4,33.4h445.1c18.4,0,33.4-15,33.4-33.4V123.4
			C561.9,105,546.9,90,528.5,90z"/>
	</g>
</g>
</svg>
