<?xml version="1.0" encoding="utf-8"?>
<!-- Generator: Adobe Illustrator 18.0.0, SVG Export Plug-In . SVG Version: 6.00 Build 0)  -->
<!DOCTYPE svg PUBLIC "-//W3C//DTD SVG 1.1//EN" "http://www.w3.org/Graphics/SVG/1.1/DTD/svg11.dtd">
<svg version="1.1" id="Capa_1" xmlns="http://www.w3.org/2000/svg" xmlns:xlink="http://www.w3.org/1999/xlink" x="0px" y="0px"
	 viewBox="0 0 512 512" enable-background="new 0 0 512 512" xml:space="preserve">
<g>
	<path fill="#FFFFFF" stroke="#FFFFFF" stroke-miterlimit="10" d="M512,214.6c0-100.5-29.4-182-65.7-182.6c0.1,0,0.3,0,0.4,0h-41.5
		c0,0-97.4,73.2-237.6,101.9c-4.3,22.6-7,49.6-7,80.8s2.7,58.1,7,80.8c140.2,28.7,237.6,101.9,237.6,101.9h41.5c-0.1,0-0.3,0-0.4,0
		C482.6,396.6,512,315.1,512,214.6z M432.4,369.6c-4.7,0-9.8-4.9-12.4-7.8c-6.3-7-12.4-18-17.6-31.7c-11.6-30.6-18-71.7-18-115.6
		c0-43.9,6.4-84.9,18-115.6c5.2-13.7,11.3-24.6,17.6-31.7c2.6-2.9,7.7-7.8,12.4-7.8c4.7,0,9.8,4.9,12.4,7.8c6.3,7,12.4,18,17.6,31.7
		c11.6,30.6,18,71.7,18,115.6c0,43.9-6.4,84.9-18,115.6c-5.2,13.7-11.3,24.6-17.6,31.7C442.2,364.8,437.1,369.6,432.4,369.6z
		 M125.9,214.6c0-26,1.9-51.2,5.5-74.5c-23.7,3.3-44.5,5.2-70.2,5.2c-33.5,0-33.5,0-33.5,0L0,192.6v44.1L27.7,284c0,0,0,0,33.5,0
		c25.7,0,46.5,1.9,70.2,5.2C127.8,265.8,125.9,240.6,125.9,214.6z M184.1,321.1l-64-12.3L161,469.6c2.1,8.3,10.4,12.5,18.3,9.3
		l59.3-23.7c8-3.2,11.2-12,7.1-19.5L184.1,321.1z M432.4,274.4c-1.8,0-3.8-1.9-4.8-3c-2.4-2.7-4.8-6.9-6.8-12.2
		c-4.5-11.8-6.9-27.6-6.9-44.5s2.5-32.7,6.9-44.5c2-5.3,4.4-9.5,6.8-12.2c1-1.1,3-3,4.8-3c1.8,0,3.8,1.9,4.8,3
		c2.4,2.7,4.8,6.9,6.8,12.2c4.5,11.8,7,27.6,7,44.5c0,16.9-2.5,32.7-7,44.5c-2,5.3-4.3,9.5-6.8,12.2
		C436.2,272.5,434.2,274.4,432.4,274.4z"/>
</g>
</svg>
