<?xml version="1.0" encoding="utf-8"?>
<!-- Generator: Adobe Illustrator 18.0.0, SVG Export Plug-In . SVG Version: 6.00 Build 0)  -->
<!DOCTYPE svg PUBLIC "-//W3C//DTD SVG 1.1//EN" "http://www.w3.org/Graphics/SVG/1.1/DTD/svg11.dtd">
<svg version="1.1" id="Capa_1" xmlns="http://www.w3.org/2000/svg" xmlns:xlink="http://www.w3.org/1999/xlink" x="0px" y="0px"
	 viewBox="0 0 111.8 111.8" enable-background="new 0 0 111.8 111.8" xml:space="preserve">
<g>
	<path fill="#FFFFFF" stroke="#FFFFFF" stroke-miterlimit="10" d="M18.5,46.4v56h93.3v-56H18.5z M104.3,83.5l-3,2.8
		c-0.4-0.1-0.7-0.2-1.2-0.2c-3.3,0-6.1,2.5-6.1,5.6c0,0.4,0.2,0.7,0.2,1.1l-3,2.8H39l-3-2.8c0.1-0.4,0.2-0.7,0.2-1.1
		c0-3.1-2.7-5.6-6.1-5.6c-0.4,0-0.8,0.1-1.2,0.2l-3-2.8V65.4l3-2.8c0.4,0.1,0.7,0.2,1.2,0.2c3.3,0,6.1-2.5,6.1-5.6
		c0-0.4-0.2-0.7-0.2-1.1l3-2.8h52.3l3,2.8c-0.1,0.4-0.2,0.7-0.2,1.1c0,3.1,2.7,5.6,6.1,5.6c0.4,0,0.8-0.1,1.2-0.2l3,2.8L104.3,83.5
		L104.3,83.5z M96.8,74.4c0,3.1-2.7,5.6-6.1,5.6s-6.1-2.5-6.1-5.6c0-3.1,2.7-5.6,6.1-5.6S96.8,71.3,96.8,74.4z M79.5,74.4
		c0,7.1-6.3,12.9-14,12.9c-7.7,0-14-5.8-14-12.9c0-7.1,6.3-12.9,14-12.9S79.5,67.3,79.5,74.4z M45.5,74.4c0,3.1-2.7,5.6-6.1,5.6
		s-6.1-2.5-6.1-5.6c0-3.1,2.7-5.6,6.1-5.6C42.8,68.8,45.5,71.3,45.5,74.4z M83.2,40.7c0.1,0.3,0.1,0.7,0.1,1H71.8
		c0.5-1.9,1.8-3.6,3.9-4.3C78.8,36.4,82.2,37.8,83.2,40.7z M20.7,41.8h-6.9v13l-0.5,0.9l0.5,1.3v22.5L0,40.3L88.1,9.4l11.4,32.4
		h-7.9l-4.2-12l-3.8-1.6c-0.3,0.2-0.6,0.4-1,0.6c-3.2,1.1-6.5-0.4-7.6-3.3c-0.1-0.4-0.1-0.7-0.1-1.1L71,22.7L21.7,40L20.7,41.8z
		 M49.4,38.9c5.3-1.9,10.8-0.6,14.4,2.8H44.5C45.9,40.6,47.5,39.6,49.4,38.9z"/>
</g>
</svg>
