<?xml version="1.0" encoding="iso-8859-1"?>
<!-- Generator: Adobe Illustrator 16.0.0, SVG Export Plug-In . SVG Version: 6.00 Build 0)  -->
<!DOCTYPE svg PUBLIC "-//W3C//DTD SVG 1.1//EN" "http://www.w3.org/Graphics/SVG/1.1/DTD/svg11.dtd">
<svg version="1.1" id="Capa_1" xmlns="http://www.w3.org/2000/svg" xmlns:xlink="http://www.w3.org/1999/xlink" x="0px" y="0px"
	 width="188.054px" height="188.054px" viewBox="0 0 188.054 188.054" style="enable-background:new 0 0 188.054 188.054;"
	 xml:space="preserve">
<g>
	<g>
		<path d="M187.849,143.726c-2.327-4.364-5.431-8.326-8.253-12.374c-1.956-2.807-9.453-11.454-7.901-15.282
			c0.715,0.209,1.55,0.078,2.105-0.664C209.097,68.245,151.927-9.626,98.817,29.49c-6.841,5.039-12.521,12.156-16.684,20.237
			c-19.375-15.051-57.61-18.669-73.475,3.601c-9.46,13.28-11.115,30.885-5.225,46.086c2.693,6.947,8.237,21.895,17.104,23.689
			c-4.218,14.876-9.324,29.361-15.892,43.385c-0.835,1.783,1.293,3.672,2.813,2.171c10.898-10.764,22.536-20.752,32.805-32.143
			c0.041-0.046,0.049-0.097,0.085-0.143c13.916,5.797,27.443,5.923,41.514,0.26c5.129-2.064,14.047-6.72,14.256-13.024
			c15.103,12.567,35.407,16.504,54.68,5.07c2.159,2.85,8.522,5.176,10.367,6.145c7.954,4.178,16.171,8.532,24.665,11.526
			C187.396,146.901,188.536,145.013,187.849,143.726z M72.177,136.19c-11.003,3.174-22.146,0.197-32.864-2.737
			c-0.047-0.013-0.081,0.023-0.128,0.017c-0.485-0.088-1.004,0.028-1.447,0.521c-8.203,9.095-17.266,17.308-26.14,25.723
			c5.199-12.008,9.536-24.366,11.872-37.282c0.282-0.71,0.067-1.635-0.828-1.943c-8.871-3.063-13.628-16.531-16.731-24.544
			c-5.52-14.256-2.036-32.271,8.222-43.286c17.049-18.307,47.969-12.005,66.808-0.588c-2.761,5.91-4.679,12.274-5.648,18.701
			c-0.227-0.114-0.487-0.192-0.804-0.188c-18.336,0.207-36.584-1.614-54.905-1.557c-1.672,0.005-1.617,2.416,0,2.556
			c18.185,1.575,36.643,3.264,54.905,2.461c0.173-0.008,0.309-0.067,0.455-0.111c-0.806,8.039-0.106,16.076,2.506,23.356
			c-18.174-0.118-36.344-0.584-54.518-0.661c-1.47-0.007-1.44,2.163,0,2.26c18.651,1.251,37.324,1.985,56.019,1.993
			c3.414,7.442,8.055,14.034,13.55,19.436c-0.048,0.192-0.067,0.395-0.039,0.605C93.73,130.286,78.927,134.243,72.177,136.19z
			 M165.589,133.124c-3.506-1.736-6.996-3.521-10.43-5.396c-0.209-0.114-1.264-0.635-2.198-1.053
			c0.044-1.049-1.018-2.104-2.242-1.443c-30.174,16.268-60.011-0.526-70.481-31.299c-8.466-24.887,6.975-53.681,28.071-66.481
			c50.026-30.354,90.765,48.217,62.383,86.135c-0.007,0.008-0.007,0.017-0.013,0.024c-0.621-0.184-1.355-0.025-1.905,0.699
			c-2.614,3.443,1.6,9.333,3.324,12.19c3.031,5.024,6.772,9.629,9.977,14.55C176.462,138.686,171.007,135.806,165.589,133.124z"/>
		<path d="M159.441,97.811c-6.154,2.969-20.535-0.856-27.035-1.424c-11.03-0.962-22.729-3.141-33.813-2.129
			c-1.883,0.172-1.952,2.965,0,2.98c12.993,0.1,26.086,2.054,39.018,3.187c4.69,0.411,20.393,4.218,23.87-0.577
			C162.44,98.525,160.65,97.228,159.441,97.811z"/>
		<path d="M161.735,82.816c-0.608-0.179-1.209-0.376-1.807-0.591c-1.764-0.604-2.463,1.833-1.175,2.788
			c-3.685-2.734-18.271-1.755-26.335-1.714c-11.053,0.056-22.106,0.167-33.156,0.416c-1.702,0.038-1.702,2.603,0,2.641
			c12.621,0.285,25.247,0.376,37.871,0.44c4.87,0.025,22.258,2.919,25.39-0.993C163.358,84.76,163.116,83.244,161.735,82.816z"/>
		<path d="M161.533,69.188c-12.059,0.238-24.1-1.963-36.129-2.59c-6.736-0.351-19.082-1.498-23.872,4.636
			c-0.337,0.432-0.045,1.13,0.563,0.968c19.913-5.301,39.261,0.956,59.438,0.559C163.834,72.716,163.838,69.142,161.533,69.188z"/>
		<path d="M73.482,82.491c-6.751-1.976-15.583-0.189-22.53,0.146c-9.565,0.461-19.144,1.06-28.689,1.833
			c-1.567,0.127-1.613,2.484,0,2.471c9.561-0.073,19.135-0.438,28.689-0.809c7.067-0.274,15.743,0.845,22.53-1.23
			C74.664,84.54,74.685,82.843,73.482,82.491z"/>
	</g>
</g>
<g>
</g>
<g>
</g>
<g>
</g>
<g>
</g>
<g>
</g>
<g>
</g>
<g>
</g>
<g>
</g>
<g>
</g>
<g>
</g>
<g>
</g>
<g>
</g>
<g>
</g>
<g>
</g>
<g>
</g>
</svg>
