<?xml version="1.0" encoding="iso-8859-1"?>
<!-- Generator: Adobe Illustrator 16.0.0, SVG Export Plug-In . SVG Version: 6.00 Build 0)  -->
<!DOCTYPE svg PUBLIC "-//W3C//DTD SVG 1.1//EN" "http://www.w3.org/Graphics/SVG/1.1/DTD/svg11.dtd">
<svg version="1.1" id="Capa_1" xmlns="http://www.w3.org/2000/svg" xmlns:xlink="http://www.w3.org/1999/xlink" x="0px" y="0px"
	 width="194.125px" height="194.125px" viewBox="0 0 194.125 194.125" style="enable-background:new 0 0 194.125 194.125;"
	 xml:space="preserve">
<g>
	<g>
		<path d="M190.873,12.656c-0.402-0.379-0.846-0.458-1.24-0.367c0.744-0.702,0.927-2.054-0.207-2.781
			c-5.987-3.834-13.622-2.213-20.333-1.515c-15.975,1.662-31.45,0.275-47.454-0.661c-17.366-1.015-34.982,1.083-52.393,1.092
			C48.706,8.434,28.152,7.2,7.626,8.274c-1.112,0.058-1.538,1.101-1.271,1.896c-0.326,0.676-0.218,1.632,0.485,2.174
			c1.431,1.102-0.634,17.142-0.763,19.518C5.328,45.632,4.275,59.386,3.383,73.146c-1.027,15.85-7.628,44.222,0.989,58.824
			c0.232,0.394,0.674,0.383,0.982,0.178c0.108,0.033,0.158,0.123,0.284,0.135c7.9,0.679,15.973,0.045,23.907-0.204
			c-5.412,16.866-5.004,35.781-3.814,53.22c0.091,1.331,1.443,2.231,2.674,1.535c20.142-11.397,37.983-31.13,43.237-54.08
			c0.042-0.186,0.021-0.347,0.014-0.514c38.229-1.212,80.045,7.121,117.518-2.865c0.09,0.003,0.161-0.043,0.251-0.061
			c0.078-0.021,0.158-0.034,0.237-0.057c0.092-0.025,0.147-0.078,0.228-0.112c0.024-0.019,0.057-0.019,0.081-0.04
			c1.041-0.505,1.083-1.748,0.459-2.514c1.547-26.118,0.498-52.352,2.084-78.491C192.931,41.249,196.767,18.205,190.873,12.656z
			 M188.571,54.564c-1.436,23.659-1.952,47.911-0.571,71.603c-20.479,4.362-41.598,3.115-62.405,3.668
			c-17.487,0.465-38.719-6.991-55.15,0.828c-0.889-0.316-1.968-0.04-2.238,1.143c-4.833,21.123-20.747,39.313-39.069,50.454
			c-0.874-17.021,0.632-33.509,2.503-50.454c1.367-0.753,1.107-3.228-0.816-3.255c-8.348-0.118-16.875,0.268-25.184,1.075
			c-0.154,0.015-0.22,0.12-0.346,0.167c-1.703-7.927-0.215-18.061,0.029-25.841c0.49-15.634,1.631-31.253,2.678-46.857
			c0.327-4.874,5.786-38.156,1.609-45.971c32.622,0.879,65.525,1.886,98.091-0.332c13.702-0.933,27.68,1.121,41.354,1.843
			c10.895,0.576,28.888-5.8,38.63-0.147c0.455,0.264,0.892,0.292,1.274,0.185c-0.394,0.407-0.582,1.042-0.292,1.685
			C193.107,24.176,189.183,44.496,188.571,54.564z"/>
		<path d="M80.967,51.193c-0.249,0.018-0.499,0.097-0.75,0.135c-1.955-0.751-4.224-0.987-5.784,0.712
			c-1.423,1.549-1.341,3.876-0.742,5.754c1.211,3.795,5.515,8.313,9.734,5.723c2.436-1.496,3.963-5.217,3.709-7.971
			C86.839,52.355,83.867,50.978,80.967,51.193z"/>
		<path d="M88.513,94.528c-1.488-4.02-5.928-4.593-9.407-3.068c-2.832,0.322-5.32,2.733-6.104,5.453
			c-1.07,3.708,2,7.262,5.433,8.166C83.886,106.512,90.551,100.031,88.513,94.528z"/>
		<path d="M101.073,39.703c-1.459-0.074-2.491,2.069-1.26,3.043c8.768,6.936,14.825,14.949,17.528,25.961
			c2.017,8.215-0.469,20.875-6.415,29.458c-3.423,3.693-7.53,6.437-12.206,7.607c-1.472,0.368-1.125,2.414,0.069,2.674
			c0.069,0.933,0.854,1.846,2.068,1.601c4.177-0.841,7.628-3.308,10.461-6.603C131.938,87.677,131.346,41.225,101.073,39.703z"/>
	</g>
</g>
<g>
</g>
<g>
</g>
<g>
</g>
<g>
</g>
<g>
</g>
<g>
</g>
<g>
</g>
<g>
</g>
<g>
</g>
<g>
</g>
<g>
</g>
<g>
</g>
<g>
</g>
<g>
</g>
<g>
</g>
</svg>
