<?xml version="1.0" encoding="utf-8"?>
<!-- Generator: Adobe Illustrator 18.0.0, SVG Export Plug-In . SVG Version: 6.00 Build 0)  -->
<!DOCTYPE svg PUBLIC "-//W3C//DTD SVG 1.1//EN" "http://www.w3.org/Graphics/SVG/1.1/DTD/svg11.dtd">
<svg version="1.1" id="Capa_1" xmlns="http://www.w3.org/2000/svg" xmlns:xlink="http://www.w3.org/1999/xlink" x="0px" y="0px"
	 viewBox="0 0 460 460" enable-background="new 0 0 460 460" xml:space="preserve">
<g>
	<g>
		<path fill="#FFFFFF" stroke="#FFFFFF" stroke-miterlimit="10" d="M279.3,392.2h-30.5V112.6h128.6L322.9,199
			c-2.8,4.4-1.4,10.2,2.9,12.9c1.6,1,3.3,1.4,5,1.4c3.1,0,6.2-1.6,7.9-4.4l47.2-75l47.2,75c2.8,4.4,8.6,5.7,12.9,2.9
			c4.4-2.8,5.7-8.6,2.9-12.9l-54.5-86.4h0.7c8,0,14.5-6.5,14.5-14.5c0-8-6.5-14.5-14.5-14.5h-107c-6-8.8-15-15.4-25.4-18.6
			c-1.5-16.9-15.7-30.2-33-30.2c-17.3,0-31.5,13.3-33,30.2c-10.4,3.2-19.4,9.8-25.4,18.6h-107c-8,0-14.5,6.5-14.5,14.5
			c0,8,6.5,14.5,14.5,14.5h0.7L10.9,199c-2.8,4.4-1.4,10.2,2.9,12.9c1.6,1,3.3,1.4,5,1.4c3.1,0,6.2-1.6,7.9-4.4l47.2-75l47.2,75
			c2.8,4.4,8.6,5.7,12.9,2.9c4.4-2.8,5.7-8.6,2.9-12.9l-54.5-86.4h128.6v279.6h-30.5c-18.3,0-33.1,14.8-33.1,33.1h164.7
			C312.3,407,297.5,392.2,279.3,392.2z"/>
		<path fill="#FFFFFF" stroke="#FFFFFF" stroke-miterlimit="10" d="M143,223.4H5c-2.8,0-5,2.2-5,5c0,40.8,33.2,74,74,74
			c40.8,0,74-33.2,74-74C148,225.6,145.8,223.4,143,223.4z"/>
		<path fill="#FFFFFF" stroke="#FFFFFF" stroke-miterlimit="10" d="M455,223.4H317c-2.8,0-5,2.2-5,5c0,40.8,33.2,74,74,74
			c40.8,0,74-33.2,74-74C460,225.6,457.8,223.4,455,223.4z"/>
	</g>
</g>
</svg>
