<?xml version="1.0" encoding="utf-8"?>
<!-- Generator: Adobe Illustrator 18.0.0, SVG Export Plug-In . SVG Version: 6.00 Build 0)  -->
<!DOCTYPE svg PUBLIC "-//W3C//DTD SVG 1.1//EN" "http://www.w3.org/Graphics/SVG/1.1/DTD/svg11.dtd">
<svg version="1.1" id="Capa_1" xmlns="http://www.w3.org/2000/svg" xmlns:xlink="http://www.w3.org/1999/xlink" x="0px" y="0px"
	 viewBox="0 0 612 792" enable-background="new 0 0 612 792" xml:space="preserve">
<path fill="#FFFFFF" stroke="#000000" stroke-miterlimit="10" d="M520.8,173.1C463.2,123.2,386.9,95.7,306,95.7
	s-157.2,27.5-214.8,77.4C32.4,224.1,0,292.3,0,365.2c0,71.3,31.8,139.1,88.1,189.3c-26.1,45.2-69.9,87.7-70.4,88.2
	C8.2,651.8,5.5,666,10.9,678c5.1,11.2,16.3,18.3,28.4,18.3c0.9,0,1.8,0,2.7-0.1c5.2-0.5,126.4-11.4,231.6-63.1
	c10.8,1,21.6,1.5,32.4,1.5c80.9,0,157.2-27.5,214.8-77.4c58.8-51,91.2-119.2,91.2-192.1S579.6,224.1,520.8,173.1z M149.9,396
	c-26,0-47.2-21.2-47.2-47.2c0-26,21.2-47.2,47.2-47.2c26,0,47.2,21.2,47.2,47.2C197.1,374.8,175.9,396,149.9,396z M306,396
	c-26,0-47.2-21.2-47.2-47.2c0-26,21.2-47.2,47.2-47.2c26,0,47.2,21.2,47.2,47.2C353.2,374.8,332,396,306,396z M462.1,396
	c-26,0-47.2-21.2-47.2-47.2c0-26,21.2-47.2,47.2-47.2c26,0,47.2,21.2,47.2,47.2C509.3,374.8,488.2,396,462.1,396z"/>
</svg>
