<?xml version="1.0" encoding="iso-8859-1"?>
<!-- Generator: Adobe Illustrator 16.0.0, SVG Export Plug-In . SVG Version: 6.00 Build 0)  -->
<!DOCTYPE svg PUBLIC "-//W3C//DTD SVG 1.1//EN" "http://www.w3.org/Graphics/SVG/1.1/DTD/svg11.dtd">
<svg version="1.1" id="Capa_1" xmlns="http://www.w3.org/2000/svg" xmlns:xlink="http://www.w3.org/1999/xlink" x="0px" y="0px"
	 width="194.202px" height="194.203px" viewBox="0 0 194.202 194.203" style="enable-background:new 0 0 194.202 194.203;"
	 xml:space="preserve">
<g>
	<g>
		<path d="M193.151,80.451c-0.054-0.289-0.158-0.574-0.381-0.828c-7.011-8.016-15.562-15.216-23.242-22.625
			c-7.411-7.151-15.461-14.573-24.887-18.962c-0.643-0.3-1.221-0.142-1.603,0.213c-0.329-0.128-0.693-0.196-1.122-0.098
			c-27.455,6.253-54.639,14.71-81.396,23.45c-2.879,0.94-5.895,1.771-8.953,2.578c-1.031-0.213-1.875-0.108-2.413,0.492
			c-0.044,0.049-0.049,0.108-0.086,0.16C34.215,68.64,18.245,72.025,6.883,81.899c-0.45-0.253-0.878-0.566-1.333-0.808v0.017
			c-1.188-0.674-3.125,1.031-1.748,2.248c0.128,0.11,0.261,0.213,0.387,0.323c-4.039,6.029-2.586,32.337-2.464,35.703
			c0.016,0.435,0.183,0.755,0.408,1.005c-0.197-0.115-0.38-0.253-0.578-0.366c-0.971-0.558-2.136,0.84-1.227,1.591
			c7.372,6.086,14.211,12.699,21.347,19.051c5.471,4.87,11.804,10.851,19.016,12.771c0.008,0.002,0.014,0,0.021,0.002
			c0.034,0.453,0.246,0.908,0.564,1.856c0.181,0.539,0.718,1.105,1.35,1.027c32.953-4.004,64.638-14.475,96.252-24.913
			c0.509,0.427,1.104,0.105,1.302-0.43c16.012-5.287,32.011-10.543,48.149-14.925c0.127-0.033,0.204-0.107,0.313-0.156
			c0.863,0.484,2.15,0.199,2.007-1.048c-0.657-5.695-0.406-11.317,0.163-17.011c0.495-4.951,2.812-9.831,3.193-14.623
			C194.459,82.211,194.105,80.903,193.151,80.451z M143.899,99.178c7.324-2.226,14.675-4.351,22.018-6.512
			c-7.387,2.614-14.66,5.699-21.68,9.167C144.166,100.942,144.05,100.058,143.899,99.178z M142.936,41.842
			c0.54-0.139,0.884-0.443,1.101-0.805c8.891,6.289,16.936,13.328,24.772,20.898c6.52,6.297,12.778,14.135,20.354,19.302
			c-15.288,5.051-30.897,9.018-46.287,13.704c-1.347-4.37-3.466-8.54-5.703-12.434c-7.617-13.25-20.224-24.668-34.513-30.326
			C116.252,48.627,129.777,45.244,142.936,41.842z M142.427,115.467c7.117,0.666,14.193-2.193,20.782-4.561
			c7.735-2.78,15.551-5.306,23.295-8.018c-0.025,0.581-0.085,1.152-0.093,1.734c-0.232-0.031-0.482-0.007-0.731,0.123
			c-13.919,7.28-29.63,11.484-44.594,16.076c0.381-1.779,0.827-3.586,1.273-5.389C142.385,115.441,142.399,115.465,142.427,115.467z
			 M97.731,53.478c0.176,0.486,0.524,0.922,1.106,1.164c17.635,7.324,34.688,22.618,40.056,41.532
			c-4.871,1.532-9.719,3.14-14.519,4.91c-9.188,3.389-18.265,6.697-27.407,9.633c-0.107-0.558-0.179-1.129-0.302-1.679
			c-1.422-6.35-9.978-13.179-14.136-17.563c-2.291-2.417-18.117-20.126-27.381-25.704C69.175,61.255,83.477,57.254,97.731,53.478z
			 M94.816,119.445c-15.759,1.471-30.097,8.95-45.726,10.957c0.194-2.193,0.403-4.385,0.569-6.579
			c0.164,0.057,0.32,0.123,0.529,0.124c15.325,0.06,30.037-3.364,44.468-7.974C94.799,117.108,94.829,118.271,94.816,119.445z
			 M50.412,67.351c9.382,3.494,20.223,17.703,27.027,24.545c5.027,5.056,10.032,10.284,14.206,16.08
			c0.861,1.194,1.497,2.458,1.987,3.764c-13.898,4.31-27.987,7.703-42.895,9.062c-0.008-0.207,0.03-0.401-0.073-0.629
			c-3.616-7.9-12.852-14.18-19.268-19.708C24.475,94.503,17.15,88.178,9.244,83.328C22.4,77.238,36.262,72.049,50.412,67.351z
			 M48.013,143.667c7.479,0.026,16.28-0.123,24.686-1.272c-8.098,2.454-16.235,4.607-24.815,3.685
			C47.938,145.266,47.973,144.464,48.013,143.667z M5.299,100.852c0.036-1.047-0.001-3.35,0.045-5.874
			c7.234,5.614,14.031,11.634,20.77,17.836c3.059,2.815,6.143,5.808,9.397,8.568c-8.818-6.312-19.285-11.019-27.724-17.615
			c0.296,0.048,0.474-0.34,0.202-0.505c-0.904-0.546-1.806-1.097-2.707-1.647C5.291,101.362,5.291,101.107,5.299,100.852z
			 M43.214,152.642c-0.215,0.101-0.381,0.195-0.397,0.268c0.065-0.303-0.041-0.563-0.207-0.782c0.067-0.574-0.131-1.199-0.69-1.611
			c-7.257-5.351-14.604-10.142-21.47-16.11c-5.567-4.84-11.279-9.73-17.608-13.569c0.899,0.257,2.02-0.218,2.057-1.455
			c0.039-1.282,0.053-2.566,0.079-3.851c6.094,7.27,13.155,13.758,20.59,19.62c4.944,3.897,11.279,9.224,17.752,10.705
			C43.005,148.216,42.835,150.576,43.214,152.642z M43.733,143.115c-14.135-8.021-27.233-17.53-38.317-29.616
			c-0.123-0.134-0.259-0.144-0.392-0.179c0.019-1.07,0.052-2.14,0.071-3.208c7.828,7.673,17.504,13.078,26.113,19.816
			c3.8,2.976,8.088,8.019,12.774,9.547c0.122,0.038,0.229-0.016,0.345-0.024C44.152,140.62,43.949,141.841,43.733,143.115z
			 M44.798,136.152c-0.517,0.088-0.654,0.649-0.4,1.008c-3.924-3.45-8.054-6.668-12.19-9.871c-3.288-2.547-6.799-4.806-10.269-7.094
			c-2.303-1.52-4.6-3.044-6.886-4.589c-2.166-1.475-4.277-3.026-6.331-4.654c-1.745-1.95-2.328-2.241-1.884-1.064
			c-0.567-0.596-1.133-1.192-1.7-1.789c0.024-1.265,0.058-2.529,0.084-3.795c12.1,11.069,27.966,16.997,39.667,28.694
			c0.099,0.099,0.225,0.09,0.34,0.137C45.086,134.141,44.939,135.146,44.798,136.152z M45.597,130.569
			c-1.827-2.276-3.951-4.267-6.189-6.146c2.079,1.539,4.215,2.979,6.497,4.138c0.024,0.012,0.046-0.004,0.07,0.007
			C45.86,129.238,45.704,129.897,45.597,130.569z M25.648,109.162c-6.508-5.603-13.045-11.241-20.26-15.926
			c0.117-3.105,0.417-6.211,1.2-7.536c7.164,6.04,14.798,11.562,21.942,17.632c6.544,5.561,12.277,12.245,18.865,17.682
			c-0.398,1.765-0.681,3.565-1.007,5.354C39.716,120.393,32.444,115.012,25.648,109.162z M90.799,141.787
			c-2.56,0.736-5.114,1.495-7.68,2.213c-2.95,0.825-26.23,5.074-35.985,7.481c0.331-1.267,0.501-2.626,0.628-4.001
			c13.809,2.504,30.214-2.354,43.324-7.208C90.99,140.777,90.88,141.292,90.799,141.787z M90.075,137.737
			c0.967-0.469,0.53-2.227-0.573-2.089c-13.921,1.718-27.231,5.523-41.375,6.225c0.04-0.643,0.073-1.301,0.135-1.9
			c0.087-0.842,0.138-1.688,0.219-2.531c14.305-0.14,28.83-4.97,42.843-7.106c1.146-0.175,1.084-2.018,0-2.245
			c-5.48-1.146-11.726,1.117-16.99,2.451c-8.473,2.147-16.983,4.718-25.723,5.4c0.124-1.334,0.226-2.67,0.346-4.004
			c15.614-0.981,30.082-7.909,45.679-9.378c-0.498,4.934-1.887,10.041-2.964,14.86C91.136,137.501,90.609,137.639,90.075,137.737z
			 M136.901,127.442c-7.031,2.271-14.06,4.552-21.098,6.808c-7.249,2.324-14.539,4.502-21.846,6.628
			c3.608-7.962,4.631-17.176,3.661-25.881c6.941-2.297,13.828-4.808,20.683-7.338c7.135-2.633,14.343-4.989,21.581-7.234
			c0.249,1.348,0.441,2.708,0.565,4.085C141.011,110.726,135.618,120.636,136.901,127.442z M140.212,126.379
			c0.1-1.297,0.319-2.652,0.58-4.027c0.047,0.006,0.069,0.045,0.123,0.041c9.331-0.642,18.817-4.382,27.604-7.343
			c4.269-1.438,14.328-3.465,17.922-7.59c0.093,1.609,0.275,3.196,0.63,4.72C171.312,116.465,155.749,121.374,140.212,126.379z
			 M186.643,100.279c-15.045,1.959-28.927,10.936-43.972,13.87c0.421-1.729,0.81-3.438,1.108-5.097
			c8.203-1.2,16.209-3.642,24.073-6.197c6.053-1.969,13.722-3.737,19.272-7.345C186.944,97.053,186.771,98.638,186.643,100.279z
			 M167.204,100.503c-7.564,2.76-15.327,5.308-23.237,6.95c0.138-0.995,0.316-2.011,0.344-2.945c0.009-0.312-0.022-0.619-0.026-0.93
			c0.271,0.143,0.583,0.207,0.93,0.058c7.384-3.197,14.796-6.195,22.428-8.75c6.628-2.219,13.493-3.116,20.161-4.905
			c-0.133,0.883-0.264,1.776-0.354,2.583C180.566,94.25,173.888,98.065,167.204,100.503z"/>
	</g>
</g>
<g>
</g>
<g>
</g>
<g>
</g>
<g>
</g>
<g>
</g>
<g>
</g>
<g>
</g>
<g>
</g>
<g>
</g>
<g>
</g>
<g>
</g>
<g>
</g>
<g>
</g>
<g>
</g>
<g>
</g>
</svg>
