<?xml version="1.0" encoding="iso-8859-1"?>
<!-- Generator: Adobe Illustrator 16.0.0, SVG Export Plug-In . SVG Version: 6.00 Build 0)  -->
<!DOCTYPE svg PUBLIC "-//W3C//DTD SVG 1.1//EN" "http://www.w3.org/Graphics/SVG/1.1/DTD/svg11.dtd">
<svg version="1.1" id="Capa_1" xmlns="http://www.w3.org/2000/svg" xmlns:xlink="http://www.w3.org/1999/xlink" x="0px" y="0px"
	 width="190.779px" height="190.779px" viewBox="0 0 190.779 190.779" style="enable-background:new 0 0 190.779 190.779;"
	 xml:space="preserve">
<g>
	<g>
		<path d="M189.33,52.726c-14.869-3.483-29.535-8.514-44.495-11.409c2.33-6.377,8.201-21.546,2.606-25.473
			c-13.316-9.347-31.371-7.577-46.539-10.985c-8.016-1.801-26.19-8.366-33.835-2.417c-10.333,8.041-8.626,27.404-11.258,39.041
			c-0.048,0.215-0.045,0.41-0.02,0.593c-0.085,0.062-0.186,0.101-0.267,0.168c-0.193,0.161-0.191,0.531,0,0.692
			c4.52,3.815,17.564,1.853,23.212,2.18c5.344,0.309,10.785,0.633,16.13,1.403c-1.257,6.622-3.217,13.079-4.379,19.712
			c-1.487-4.548-3.03-9.08-4.656-13.591c-0.379-1.052-1.243-1.492-2.324-1.319c-27.499,4.39-52.58,23.937-80.398,25.395
			c-2.241,0.118-2.269,3.554,0,3.502c17.444-0.396,35.42-9.935,51.509-16.14c10.511-4.054,26.205-14.636,31.328,0.24
			c3.666,10.644,6.683,21.492,8.816,32.544c-18.646,6.729-37.469,12.924-56.276,19.186c-10.563,3.518-17.11,3.35-23.467-7.303
			c-5.43-9.099-10.646-17.98-13.126-28.415c-0.238-1.001-1.939-0.804-1.822,0.247c1.534,13.679,10.143,36.731,23.824,42.362
			c5.744,2.363,17.031-3.74,22.017-5.394c6.48-2.147,12.962-4.291,19.436-6.455c-0.043,5.434,5.432,13.354,9.262,18.882
			C68.981,144.634,63.395,159.318,59,174.351c-0.674,2.307,2.922,3.287,3.586,0.988c4.24-13.876,9.856-27.414,14.855-41.117
			c0.031,0.054,0.085,0.129,0.114,0.18c10.262,17.602,14.946,37.791,25.226,55.465c1.221,2.1,4.478,0.203,3.254-1.903
			c-9.244-15.901-14.068-33.603-22.169-50.008c-1.313-2.66-2.805-5.916-4.427-9.315c2.838-8.155,5.322-16.404,7.091-24.841
			c3.551-1.26,7.104-2.518,10.635-3.837c1.15-0.43,1.44-1.59,1.15-2.502c0.17-0.346,0.268-0.738,0.179-1.204
			c-1.591-8.322-3.777-16.47-6.263-24.535c0.7-0.219,1.306-0.782,1.399-1.695c0.788-7.788,3.417-15.232,4.246-23.003
			c4.627,0.835,9.156,2.056,13.446,4.012c0.235,0.107,0.464,0.152,0.686,0.165c-2.122,9.077-4.247,18.1-7.753,26.838
			c-0.099,0.248-0.106,0.479-0.073,0.698c-0.193,0.084-0.406,0.146-0.594,0.237c-0.167,0.082-0.131,0.307,0,0.397
			c7.581,5.246,23.008,3.912,31.831,5.159c0.787,0.111,1.561,0.236,2.341,0.352c-0.157,0.132-0.35,0.196-0.463,0.4
			c-2.571,4.617-4.431,9.338-3.624,14.468c-3.547,9.084-6.921,21.156-7.84,23.969c-2.85,8.721-5.308,17.542-7.843,26.356
			c-1.615,5.614-3.154,11.54-5.502,16.893c-0.853,1.943,1.315-0.622,1.6,1.544c-0.059-0.454-0.539-0.718-0.912-0.378
			c-0.272,0.249-0.545,0.497-0.817,0.746c-1.051,0.959,0.597,2.608,1.557,1.558c8.629-9.438,10.036-28.213,13.768-40.113
			c3.115-9.939,6.405-19.819,10.326-29.474c1.699-4.184,4.24-8.691,4.416-13.27c0.017-0.418-0.165-0.754-0.409-1.033
			c-0.244-0.655-0.868-1.143-1.595-1.148c-0.021-0.039-0.021-0.09-0.045-0.126c12.736,2.02,24.758,4.906,36.452,10.641
			c1.109,0.544,2.376-0.416,2.107-1.564c0.377-0.123,0.725-0.381,0.959-0.867c5.84-12.179,10.694-25.298,10.822-38.935
			C190.727,53.735,190.14,52.916,189.33,52.726z M77.017,123.69c-2.597-5.107-5.485-10.109-8.593-13.627
			c5.241-1.763,10.471-3.559,15.687-5.392C81.825,111.032,79.439,117.365,77.017,123.69z M144.388,26.88
			c-2.078-2.306-4.437-4.459-6.569-6.617c-2.751-2.784-5.562-5.418-8.944-7.404c1.071,0.184,2.15,0.32,3.217,0.534
			C142.213,15.422,144.804,20.445,144.388,26.88z M128.067,12.725c-0.204,0.184-0.275,0.525,0.032,0.711
			c3.697,2.251,6.77,5.331,9.618,8.561c2.102,2.382,4.048,5.142,6.396,7.341c-0.173,1.069-0.407,2.168-0.687,3.292
			c-5.938-7.388-13.348-13.638-19.801-20.641C125.113,12.197,126.587,12.481,128.067,12.725z M113.688,10.704
			c3.471,4.789,7.476,9.143,11.645,13.339c4.483,4.514,8.904,9.563,13.947,13.44c0.483,0.371,1.143-0.342,0.822-0.822
			c-3.196-4.774-7.986-8.555-12.118-12.502c-4.438-4.24-8.661-8.633-12.682-13.248c2.212,0.28,4.422,0.565,6.632,0.859
			c6.406,7.7,13.355,15.377,20.61,22.233c0.156,0.147,0.32,0.181,0.479,0.196c-0.576,2.09-1.265,4.248-1.972,6.444
			c-0.648-0.108-1.307-0.148-1.957-0.246c-4.224-5.409-9.71-10.067-14.585-14.869c-5.451-5.37-11.029-10.634-16.802-15.662
			C109.697,10.174,111.691,10.445,113.688,10.704z M105.869,9.548c6.022,5.52,11.826,11.243,17.529,17.093
			c4.308,4.42,8.444,9.38,13.163,13.437c-1.659-0.212-3.311-0.485-4.979-0.625c-10.122-10.047-20.434-19.762-29.738-30.599
			C103.178,9.131,104.526,9.322,105.869,9.548z M99.901,8.491c0.089,0.021,0.179,0.03,0.268,0.05
			c8.389,11.057,18.196,21.832,28.892,30.812c-2.208-0.132-4.414-0.282-6.643-0.264C112.045,28.452,100.886,18.745,92.22,6.603
			C95.019,7.271,97.67,7.977,99.901,8.491z M90.481,6.21c7.881,12.227,18.453,23.374,29.435,32.96
			c-0.864,0.032-1.724,0.025-2.592,0.083c-12.26-11.255-24.454-22.151-35.707-34.494C84.56,4.985,87.581,5.56,90.481,6.21z
			 M80.684,4.676c5.669,7.188,11.788,13.97,18.186,20.52c4.886,5.002,10.207,10.718,16.216,14.696
			c-0.229,0.217-0.454,0.447-0.541,0.789c-0.272,1.068-0.52,2.136-0.778,3.204c-4.235-8.005-11.767-14.873-18.1-21.128
			c-6.59-6.508-13.677-12.447-21.297-17.693C76.34,4.654,78.479,4.562,80.684,4.676z M59.112,40.889
			c0.299-1.023,0.511-2.068,0.765-3.102c0.771,1.032,1.593,2.021,2.401,3.02C61.213,40.767,60.133,40.761,59.112,40.889z
			 M66.417,41.013c-0.914-0.017-1.973-0.1-3.069-0.164c-0.954-1.422-2.047-2.79-3.218-4.088c0.292-1.25,0.536-2.513,0.787-3.774
			c2.189,2.768,4.295,5.68,6.813,8.066C67.293,41.044,66.855,41.022,66.417,41.013z M69.148,41.096
			c-2.466-3.12-5.22-6.153-8.036-9.041c0.295-1.527,0.552-3.064,0.821-4.597c4.139,4.315,7.225,9.802,12.055,13.318
			c0.326,0.237,0.666-0.264,0.414-0.536c-4.143-4.477-7.836-9.577-12.292-13.766c0.211-1.213,0.43-2.425,0.646-3.637
			c3.465,3.128,6.376,6.785,9.255,10.458c2.072,2.643,4.178,5.733,6.716,8.155C75.536,41.288,72.342,41.172,69.148,41.096z
			 M81.052,41.607c-3.071-3.349-6.234-6.574-9.151-10.107c-2.755-3.336-5.657-6.494-9.059-9.15c0.322-1.794,0.688-3.575,1.055-5.357
			C70.9,25.404,77.99,33.841,85.4,41.898C83.951,41.79,82.501,41.694,81.052,41.607z M87.48,42.042
			c-7.24-9.1-15.577-17.401-23.393-26.018c0.079-0.371,0.138-0.749,0.22-1.119c0.082-0.364,0.215-0.653,0.312-0.995
			c3.044,5.012,7.198,9.39,11.134,13.686c4.525,4.939,9.145,9.853,13.893,14.602C88.87,42.15,88.177,42.096,87.48,42.042z
			 M92.034,42.345c-8.68-9.999-18.461-19.103-27.216-29.066c0.347-1.057,0.794-1.967,1.291-2.803
			c9.648,9.916,17.366,23.358,28.283,32.03C93.592,42.448,92.799,42.393,92.034,42.345z M97.608,42.789
			C86.616,32.359,77.313,20.506,66.52,9.883c0.746-1.098,1.642-1.969,2.628-2.692c12.679,12.057,24.686,24.73,36.953,37.182
			C103.462,43.564,100.517,43.095,97.608,42.789z M109.554,45.756C97.503,31.726,83.802,18.929,70.03,6.614
			c0.996-0.596,2.084-1.042,3.238-1.363c15.706,10.993,27.511,25.457,39.872,39.866c0.087,0.102,0.188,0.125,0.288,0.148
			c-0.219,0.916-0.451,1.831-0.668,2.747C111.868,47.117,110.774,46.38,109.554,45.756z M176.726,91.44
			c-7.582-7.018-25.19-8.074-33.66-9.499c-8.978-1.511-24.771-6.22-35.147-4.32c3.607-8.042,5.696-16.319,7.629-24.973
			c2.078-9.301,9.237-11.021,17.345-10.2c0.262,0.205,0.517,0.427,0.779,0.63c0.364,0.281,0.751-0.057,0.81-0.433
			c2.185,0.3,4.415,0.75,6.618,1.269c0.461,0.381,1.099,0.532,1.705,0.413c3.403,0.85,6.691,1.788,9.557,2.463
			c10.443,2.46,20.691,5.751,31.08,8.44C192.824,57.661,179.2,86.175,176.726,91.44z"/>
	</g>
</g>
<g>
</g>
<g>
</g>
<g>
</g>
<g>
</g>
<g>
</g>
<g>
</g>
<g>
</g>
<g>
</g>
<g>
</g>
<g>
</g>
<g>
</g>
<g>
</g>
<g>
</g>
<g>
</g>
<g>
</g>
</svg>
