<?xml version="1.0" encoding="utf-8"?>
<!-- Generator: Adobe Illustrator 18.0.0, SVG Export Plug-In . SVG Version: 6.00 Build 0)  -->
<!DOCTYPE svg PUBLIC "-//W3C//DTD SVG 1.1//EN" "http://www.w3.org/Graphics/SVG/1.1/DTD/svg11.dtd">
<svg version="1.1" id="Capa_1" xmlns="http://www.w3.org/2000/svg" xmlns:xlink="http://www.w3.org/1999/xlink" x="0px" y="0px"
	 viewBox="0 0 612 792" enable-background="new 0 0 612 792" xml:space="preserve">
<g>
	<g id="share">
		<path fill="#FFFFFF" stroke="#000000" stroke-miterlimit="10" d="M535.5,549c-18.6,0-35,7.5-48.3,18.5l-116.6-83.2
			c7.4-15.2,11.9-32,11.9-50c0-24.7-8.1-47.6-21.4-66.3l136.4-136.5c11.3,6.7,23.8,11.5,37.9,11.5c42.3,0,76.5-34.2,76.5-76.5
			S577.8,90,535.5,90S459,124.2,459,166.5c0,14.1,4.9,26.6,11.5,37.9L334.1,340.9c-18.8-13.4-41.5-21.4-66.3-21.4
			c-43.8,0-81.4,24.9-100.8,61l-92.1-30.8c-3.7-17.2-18.3-30.3-36.6-30.3C17.1,319.5,0,336.6,0,357.8S17.1,396,38.2,396
			c9.6,0,18.2-3.9,25-9.8l91.6,30.6c-0.9,5.8-1.8,11.5-1.8,17.5c0,63.3,51.4,114.8,114.8,114.8c31.5,0,60.1-12.8,80.9-33.4
			l115.9,82.7c-3.3,8.5-5.5,17.6-5.5,27.2c0,42.2,34.2,76.5,76.5,76.5s76.5-34.3,76.5-76.5S577.8,549,535.5,549z"/>
	</g>
</g>
</svg>
