<?xml version="1.0" encoding="UTF-8" standalone="no"?>
<svg width="553px" height="86px" viewBox="0 0 553 86" version="1.1" xmlns="http://www.w3.org/2000/svg" xmlns:xlink="http://www.w3.org/1999/xlink" xmlns:sketch="http://www.bohemiancoding.com/sketch/ns">
    <!-- Generator: Sketch 3.3.1 (12005) - http://www.bohemiancoding.com/sketch -->
    <title>logo</title>
    <desc>Created with Sketch.</desc>
    <defs></defs>
    <g id="Logo" stroke="none" stroke-width="1" fill="none" fill-rule="evenodd" sketch:type="MSPage">
        <g id="logo" sketch:type="MSLayerGroup" transform="translate(0.000000, -5.000000)" fill="#FFFFFF">
            <path d="M43.3071224,17.8998472 C46.7136897,11.2855526 53.609513,6.76203893 61.5618596,6.76203893 L61.5618596,6.76203893 L82.0824795,6.76203893 L82.0824795,27.2826588 C82.0824795,36.1519441 76.4556655,43.7070166 68.5770423,46.5728714 C68.462175,42.6939895 67.712219,39.0705233 66.3271567,35.7023809 C64.8168376,32.0296435 62.6772509,28.8341207 59.9083324,26.1157167 C57.139414,23.3973126 53.8391365,21.2717839 50.0074008,19.7390667 C47.8893336,18.8918272 45.6559146,18.2787553 43.3071224,17.8998472 L43.3071224,17.8998472 Z M38.540144,17.4565886 C35.0579452,11.084286 28.29404,6.76203893 20.5206199,6.76203893 C9.18739446,6.76203893 0,15.9494334 0,27.2826588 C0,36.8766584 6.58392234,44.9329005 15.4799995,47.1796177 L15.4799995,17.4400024 L37.3795177,17.4400024 C37.7691176,17.4400024 38.155993,17.4455312 38.540144,17.4565886 L38.540144,17.4565886 Z M68.5716744,49.0317342 C76.4531096,51.8961095 82.0824795,59.4525991 82.0824795,68.3238986 C82.0824795,79.657124 72.895085,88.8445184 61.5618596,88.8445184 C53.6075809,88.8445184 46.7103389,84.3188064 43.3046401,77.7018888 C45.654341,77.3158637 47.8885875,76.6910884 50.0074008,75.8275591 C53.8391365,74.2659228 57.139414,72.1259347 59.9083324,69.4075306 C62.6772509,66.6891266 64.8168376,63.4791444 66.3271567,59.7774878 C67.6922377,56.4317971 68.4404046,52.8499087 68.5716744,49.0317342 L68.5716744,49.0317342 Z M38.5384031,78.1531538 C35.0556912,84.5237116 28.2927448,88.8445184 20.5206199,88.8445184 C9.18739446,88.8445184 0,79.657124 0,68.3238986 C0,58.729899 6.58392234,50.6736569 15.4799995,48.4269397 L15.4799995,78.170002 L37.3795177,78.170002 C37.7685291,78.170002 38.1548242,78.1643859 38.5384031,78.1531538 L38.5384031,78.1531538 Z M41.0412398,29.0392101 L41.0412398,47.8032787 L57.1779395,47.8032787 L57.1779395,47.8000011 C57.1779395,45.0899877 56.7129932,42.5659934 55.7830867,40.2279426 C54.8531801,37.8898918 53.5513304,35.8839805 51.8774986,34.2101487 C50.2036667,32.5363169 48.1711871,31.221183 45.7799988,30.2647077 C44.3019204,29.6734763 42.7223404,29.2649783 41.0412398,29.0392101 Z M26.8099995,46.8215035 C34.5350153,44.3368241 40.2624845,37.3979952 40.9679342,29.0294895 C39.9520384,28.8964975 38.8991987,28.8300018 37.8094108,28.8300018 L26.8099995,28.8300018 L26.8099995,46.8215035 L26.8099995,46.8215035 Z M57.1758517,48.2730594 C48.5089174,50.1601298 41.8867611,57.5236337 41.1162742,66.5566795 C42.7693623,66.335239 44.3239312,65.9413961 45.7799988,65.3751476 C48.1711871,64.445241 50.2036667,63.1433913 51.8774986,61.4695595 C53.5513304,59.7957276 54.8531801,57.8031006 55.7830867,55.4916185 C56.6770163,53.2695649 57.1412672,50.8634008 57.1758517,48.2730594 L57.1758517,48.2730594 Z M40.9678496,66.5760648 C40.2620268,58.2080078 34.5347067,51.2696341 26.8099995,48.7850539 L26.8099995,66.7700005 L37.8094108,66.7700005 C38.8991685,66.7700005 39.95198,66.7053555 40.9678496,66.5760648 L40.9678496,66.5760648 Z" sketch:type="MSShapeGroup"></path>
            <text id="DemocracyOS" sketch:type="MSTextLayer" font-family="Gotham" font-size="68.852459" font-weight="420" letter-spacing="-3.20000005">
                <tspan x="95" y="55">Democracy</tspan>
                <tspan x="458.727868" y="55" font-style="condensed" font-weight="260">O</tspan>
                <tspan x="513.501639" y="55" font-style="condensed" font-weight="260">S</tspan>
            </text>
            <text id="PARIS" sketch:type="MSTextLayer" font-family="Gotham" font-size="27.0491803" font-weight="bold" letter-spacing="10.8999996">
                <tspan x="100" y="90">PARIS</tspan>
            </text>
            <text id="CLIMATE" sketch:type="MSTextLayer" font-family="Gotham" font-size="27.0491803" font-weight="260" letter-spacing="10.9">
                <tspan x="247" y="90">CLIMATE</tspan>
            </text>
            <text id="2015" sketch:type="MSTextLayer" font-family="Gotham" font-size="27.0491803" font-weight="bold" letter-spacing="10.9">
                <tspan x="456" y="90">201</tspan>
                <tspan x="536.577049" y="90">5</tspan>
            </text>
        </g>
    </g>
</svg>